HIERARCHY
ROOT Hips
{
	OFFSET -3.958830 18.904000 13.208200
	CHANNELS 6 Xposition Yposition Zposition Zrotation Yrotation Xrotation 
	JOINT LHipJoint
	{
		OFFSET 0.000000 0.000000 0.000000
		CHANNELS 3 Zrotation Yrotation Xrotation
		JOINT LeftUpLeg
		{
			OFFSET 1.800000 -1.400000 0.085000
			CHANNELS 3 Zrotation Yrotation Xrotation
			JOINT LeftLeg
			{
				OFFSET 2.215000 -6.000000 0.000000
				CHANNELS 3 Zrotation Yrotation Xrotation
				JOINT LeftFoot
				{
					OFFSET 2.500000 -6.900000 0.000000
					CHANNELS 3 Zrotation Yrotation Xrotation
					JOINT LeftToeBase
					{
						OFFSET 0.200000 -0.500000 1.950000
						CHANNELS 3 Zrotation Yrotation Xrotation
						End Site
						{
							OFFSET 0.000000 0.000000 0.000000
						}
					}
				}
			}
		}
	}
	JOINT RHipJoint
	{
		OFFSET 0.000000 0.000000 0.000000
		CHANNELS 3 Zrotation Yrotation Xrotation
		JOINT RightUpLeg
		{
			OFFSET -1.800000 -1.400000 0.085000
			CHANNELS 3 Zrotation Yrotation Xrotation
			JOINT RightLeg
			{
				OFFSET -2.215000 -6.000000 0.000000
				CHANNELS 3 Zrotation Yrotation Xrotation
				JOINT RightFoot
				{
					OFFSET -2.500000 -6.900000 0.000000
					CHANNELS 3 Zrotation Yrotation Xrotation
					JOINT RightToeBase
					{
						OFFSET -0.200000 -0.500000 1.950000
						CHANNELS 3 Zrotation Yrotation Xrotation
						End Site
						{
							OFFSET 0.000000 0.000000 0.000000
						}
					}
				}
			}
		}
	}
	JOINT LowerBack
	{
		OFFSET 0.000000 0.000000 0.000000
		CHANNELS 3 Zrotation Yrotation Xrotation
		JOINT Spine
		{
			OFFSET -0.087000 1.940000 -0.288900
			CHANNELS 3 Zrotation Yrotation Xrotation
			JOINT Spine1
			{
				OFFSET 0.000000 1.950000 0.060000
				CHANNELS 3 Zrotation Yrotation Xrotation
				JOINT Neck
				{
					OFFSET 0.000000 0.000000 0.000000
					CHANNELS 3 Zrotation Yrotation Xrotation
					JOINT Neck1
					{
						OFFSET 0.000000 1.600000 0.340000
						CHANNELS 3 Zrotation Yrotation Xrotation
						JOINT Head
						{
							OFFSET 0.000000 1.667000 -0.240000
							CHANNELS 3 Zrotation Yrotation Xrotation
							End Site
							{
								OFFSET 0.000000 0.000000 0.000000
							}
						}
					}
				}
				JOINT LeftShoulder
				{
					OFFSET 0.000000 0.000000 0.000000
					CHANNELS 3 Zrotation Yrotation Xrotation
					JOINT LeftArm
					{
						OFFSET 2.700000 1.550000 -0.730000
						CHANNELS 3 Zrotation Yrotation Xrotation
						JOINT LeftForeArm
						{
							OFFSET 5.450000 0.000000 0.000000
							CHANNELS 3 Zrotation Yrotation Xrotation
							JOINT LeftHand
							{
								OFFSET 3.450000 0.000000 0.000000
								CHANNELS 3 Zrotation Yrotation Xrotation
								JOINT LeftHandIndex1
								{
									OFFSET 0.750000 0.000000 0.000000
									CHANNELS 3 Zrotation Yrotation Xrotation
									End Site
									{
										OFFSET 0.000000 0.000000 0.000000
									}
								}
							}
						}
					}
				}
				JOINT RightShoulder
				{
					OFFSET 0.000000 0.000000 0.000000
					CHANNELS 3 Zrotation Yrotation Xrotation
					JOINT RightArm
					{
						OFFSET -2.700000 1.550000 -0.730000
						CHANNELS 3 Zrotation Yrotation Xrotation
						JOINT RightForeArm
						{
							OFFSET -5.450000 0.000000 0.000000
							CHANNELS 3 Zrotation Yrotation Xrotation
							JOINT RightHand
							{
								OFFSET -3.450000 0.000000 0.000000
								CHANNELS 3 Zrotation Yrotation Xrotation
								JOINT RightHandIndex1
								{
									OFFSET -0.750000 0.000000 0.000000
									CHANNELS 3 Zrotation Yrotation Xrotation
									End Site
									{
										OFFSET 0.000000 0.000000 0.000000
									}
								}
							}
						}
					}
				}
			}
		}
	}
}
MOTION
Frames: 13
Frame Time: 0.016667
0.142830 17.547060 -0.962460 -0.387205 -1.401930 -17.597991 -15.381897 13.243008 2.855440 4.039916 2.369272 10.165003 -8.218018 7.710501 12.110107 0.053838 5.887952 2.689505 0.633790 0.511330 0.508310 18.202840 -10.784438 2.531056 -7.766367 -1.693269 6.104294 7.117520 -6.359062 11.261835 -0.715322 -5.080664 2.623903 0.429650 0.121580 0.211610 -3.177951 -1.976299 -6.890872 5.219608 0.985049 12.325380 -0.488798 0.812515 28.976959 1.041462 -1.420510 -10.280887 -4.508143 2.369801 36.112578 -3.357350 2.561610 -16.384180 -10.710333 -24.403369 6.458415 -10.811827 -26.757588 -7.322895 120.155803 -10.867690 -34.023536 -3.851741 3.077027 0.315510 0.116220 0.056900 0.154520 9.441304 26.480318 8.564348 19.430338 20.819298 -14.568514 -119.097755 7.950645 -33.713349 1.906568 -2.318285 -0.103000 0.252950 -0.136740 -0.173280 
0.148030 17.504340 -0.931390 -0.284988 -1.757080 -17.985987 -15.374437 13.187837 2.873545 4.076412 2.546614 11.166551 -8.564996 7.867011 11.941134 0.036369 6.045454 2.635009 0.624320 0.482500 0.510820 18.222102 -10.786851 2.505936 -8.010538 -1.714774 6.765823 7.059187 -6.480657 11.614317 -0.729553 -5.171311 2.580021 0.435940 0.135210 0.211290 -3.215200 -1.910698 -6.852071 5.477132 1.075071 11.736298 -0.577133 0.869190 29.497245 0.928991 -1.660971 -10.258277 -4.979210 2.295219 36.228638 -3.107740 2.086220 -16.909870 -10.963881 -25.081884 6.437990 -10.482590 -27.208922 -7.485644 121.120614 -9.350505 -32.494650 -3.868361 3.070260 0.342700 0.116200 0.047210 0.139240 9.954733 27.310378 8.725689 18.809062 21.041356 -14.830491 -120.554642 6.702390 -32.713673 1.889016 -2.321888 -0.134110 0.278880 -0.106610 -0.190070 
0.142330 17.456890 -0.915260 0.303518 -1.396669 -19.006502 -15.466417 13.251483 2.888343 4.083670 2.776709 12.114750 -8.927482 8.256755 12.887495 0.047850 6.271792 2.539678 0.642520 0.489750 0.527110 18.139018 -10.698884 2.473722 -8.643479 -1.739992 8.272167 6.876584 -6.617804 11.819620 -0.769056 -5.316785 2.515996 0.450880 0.115590 0.218550 -2.968441 -2.177252 -6.826579 3.929231 1.415383 11.530333 0.073060 1.221358 30.760999 0.936813 -1.350948 -10.562254 -4.637271 1.993038 37.184805 -2.921840 1.738520 -17.497340 -11.622996 -27.157076 6.485708 -9.448272 -27.775807 -8.431992 122.340232 -7.068049 -30.145992 -3.870467 3.105744 0.372330 0.103700 0.056120 0.127450 10.608304 29.400401 9.567738 17.811623 20.363489 -16.052742 -123.174791 4.380854 -31.701383 1.879635 -2.371009 -0.140590 0.275430 -0.097170 -0.208580 
0.137110 17.407340 -0.893990 0.614354 -0.855101 -20.230435 -15.553437 13.337596 2.904400 4.277092 2.976126 13.263070 -8.886573 8.558503 13.836743 0.132882 6.435292 2.471376 0.677910 0.530380 0.561420 18.052723 -10.610886 2.467239 -9.079187 -1.793427 9.817060 6.990380 -6.830037 12.123379 -0.837437 -5.451855 2.460070 0.447130 0.067480 0.238160 -2.725537 -2.455852 -6.845041 2.781786 1.563627 11.586803 0.510365 1.340887 32.051752 1.062568 -1.173821 -11.252425 -4.668069 1.713705 38.797659 -3.122750 1.526140 -18.264550 -12.562426 -29.792062 6.910320 -7.781991 -26.947707 -10.033586 123.765001 -4.934509 -28.108487 -3.855095 3.160888 0.385840 0.070720 0.105110 0.129350 11.322843 32.087087 10.664557 16.991508 19.293330 -17.690581 -125.731436 1.591903 -30.119200 1.916933 -2.442286 -0.097030 0.250680 -0.124530 -0.202700 
0.138440 17.373860 -0.873780 0.433706 -0.566094 -21.504228 -15.618673 13.453808 2.913374 5.018992 2.976973 14.216992 -8.919394 8.991022 15.283939 0.213387 6.644468 2.386925 0.677710 0.517980 0.580370 17.971555 -10.532565 2.521854 -9.040746 -1.964540 11.433057 7.250981 -7.050872 12.146166 -0.904544 -5.554327 2.424619 0.408670 0.012010 0.239950 -2.517650 -2.723898 -6.958842 2.475543 1.369823 12.186961 0.490791 1.214586 33.058517 1.525142 -1.333367 -12.488786 -5.427345 1.840462 41.186367 -3.402400 1.472980 -19.009790 -14.574194 -32.736214 7.701023 -5.661320 -24.072578 -11.971474 124.698835 -3.895745 -27.264763 -3.844753 3.184028 0.433250 0.019880 0.152060 0.116830 12.549544 35.182716 12.210763 15.395811 17.004852 -19.538816 -127.362231 0.462503 -30.858775 1.976705 -2.444140 -0.075880 0.229970 -0.132940 -0.211490 
0.128990 17.341070 -0.854080 0.588919 -1.068259 -22.225906 -15.653931 13.523949 2.933556 5.603014 3.052636 14.778325 -9.532321 9.518807 16.362243 0.294887 6.844939 2.318716 0.656060 0.485470 0.581550 17.920915 -10.515405 2.529698 -9.133345 -1.990144 12.092213 7.282689 -7.217919 12.680712 -0.939832 -5.589491 2.418754 0.360820 -0.019600 0.237690 -2.388330 -2.848979 -7.031413 2.134242 1.439298 12.495019 0.486650 1.436162 33.255294 1.743675 -1.501800 -13.356697 -6.117091 2.058113 43.374921 -3.612370 1.533000 -19.474750 -15.849365 -33.678564 8.151024 -5.065687 -21.816231 -12.841570 124.558753 -4.256274 -27.935890 -3.824176 3.165578 0.476430 -0.018630 0.189340 0.108150 13.503675 36.428648 13.306148 15.508856 15.395559 -20.247492 -127.801800 1.600354 -34.367890 2.015212 -2.367906 -0.067220 0.224260 -0.132980 -0.214640 
0.120570 17.335990 -0.847770 0.414145 -1.030147 -22.808269 -15.722115 13.670255 2.940378 6.502026 2.876271 14.682817 -10.110992 10.064324 17.718901 0.383163 7.016062 2.253018 0.642840 0.463680 0.601930 17.835759 -10.439505 2.552837 -8.766766 -2.116209 12.626351 7.069063 -7.242837 12.912005 -0.971572 -5.545556 2.437158 0.307710 -0.075050 0.233490 -2.167381 -3.161747 -7.130449 1.571362 1.355124 13.386279 0.867356 1.410074 32.949035 2.020639 -1.447469 -13.905750 -6.428252 2.213509 45.242065 -3.961090 1.877220 -20.406590 -17.022538 -33.584556 8.450764 -5.038788 -19.775034 -13.272389 123.329989 -6.527124 -30.693037 -3.790490 3.112368 0.517650 -0.069900 0.237710 0.091810 14.146478 36.379046 14.086419 15.966600 13.192363 -20.559610 -127.021546 5.150623 -40.794864 2.060388 -2.233514 -0.044280 0.202140 -0.146530 -0.221280 
0.123400 17.349910 -0.862510 -0.093801 -0.919512 -23.274853 -15.712216 13.789306 2.935767 7.243218 2.561139 14.135707 -10.190066 10.400121 19.170232 0.443891 7.095330 2.209773 0.635350 0.459160 0.604510 17.817781 -10.433001 2.583632 -8.474508 -2.247004 12.635416 7.356176 -7.408186 13.523494 -0.991812 -5.523064 2.445465 0.272810 -0.125420 0.224420 -2.156869 -3.342127 -7.235926 2.077716 1.107665 15.024521 0.746242 1.238242 32.190999 2.139036 -1.639084 -13.939302 -7.118574 2.411124 46.009149 -3.577210 1.956030 -21.273640 -17.150660 -32.335522 8.428918 -5.735902 -18.493425 -13.295177 121.164901 -9.856837 -34.444746 -3.744101 3.058497 0.538490 -0.116880 0.272160 0.080750 13.923120 35.062692 14.265590 16.809583 10.968172 -20.583228 -125.412739 9.713889 -47.358975 2.094411 -2.101107 -0.017840 0.175020 -0.159410 -0.220090 
0.123380 17.379670 -0.890450 -0.120918 -1.195516 -23.492164 -15.703683 13.903413 2.960536 7.435054 2.372592 13.345344 -10.381244 10.637188 20.138980 0.472707 7.138919 2.184233 0.609870 0.418300 0.585880 17.798637 -10.449333 2.567683 -8.402263 -2.174020 11.895208 7.300673 -7.468650 14.501705 -0.963895 -5.449817 2.472613 0.233660 -0.141600 0.208780 -2.138604 -3.521139 -7.312238 2.121250 1.141815 16.795277 0.940288 1.419457 30.934386 1.969196 -2.066738 -13.749042 -8.147129 2.527920 46.114050 -1.951040 1.412140 -21.181740 -16.410921 -29.801121 8.162413 -7.586669 -17.410199 -12.774718 118.030440 -14.308564 -38.926687 -3.690033 2.996048 0.556200 -0.147990 0.268860 0.065800 13.353981 32.914557 14.118248 17.667929 8.667168 -20.220249 -123.357368 15.186088 -53.639107 2.118326 -1.958499 -0.015270 0.155170 -0.150030 -0.222250 
0.126430 17.432230 -0.935870 -0.246947 -1.375108 -23.902554 -15.691902 14.063925 3.014724 7.730891 2.154626 12.472192 -10.648250 10.873242 21.043140 0.536966 7.152171 2.170644 0.597740 0.408040 0.572690 17.768179 -10.457840 2.563770 -8.258822 -2.088186 10.993337 7.347005 -7.550135 15.612638 -0.951789 -5.354971 2.510087 0.190610 -0.179260 0.199850 -2.111111 -3.774824 -7.458916 2.413445 1.040990 19.838358 0.806183 1.564684 29.174314 2.141892 -2.693123 -13.628109 -9.629475 2.707896 46.262332 -1.242200 0.987110 -21.807740 -16.175328 -27.249307 7.870875 -8.595616 -14.970346 -12.624574 114.415825 -20.418175 -44.256107 -3.631459 2.921572 0.570530 -0.192160 0.293120 0.061710 12.586137 31.021879 13.868285 18.064878 6.141754 -20.120314 -121.088845 20.821968 -59.104735 2.162607 -1.825930 0.014710 0.126280 -0.162180 -0.210660 
0.125260 17.481620 -1.002470 -0.432982 -1.533572 -23.933772 -15.678379 14.217412 3.045782 7.953532 1.829967 11.018954 -10.896820 11.108986 22.182890 0.559384 7.211333 2.161606 0.556750 0.357770 0.540390 17.751287 -10.464759 2.535043 -7.527528 -1.866370 9.273829 6.939139 -7.453978 17.082668 -0.894202 -5.202164 2.571983 0.154930 -0.157810 0.187220 -2.103176 -4.018204 -7.529033 2.405836 0.947823 22.885882 1.003021 1.625217 27.165513 2.065978 -3.178389 -13.088332 -10.461419 2.685845 45.123171 -0.664210 0.600610 -21.239210 -14.603557 -23.598038 7.119008 -9.872970 -13.565167 -11.765201 110.129123 -26.591030 -48.171913 -3.595402 2.830736 0.567420 -0.192090 0.275920 0.062700 10.927005 27.971331 13.000794 18.211474 4.825355 -19.032755 -118.895628 26.430664 -63.547913 2.162800 -1.699690 0.003240 0.130440 -0.150770 -0.201690 
0.132220 17.543630 -1.094300 -0.891348 -1.503612 -24.054752 -15.630679 14.384169 3.072043 8.236572 1.454037 9.402636 -10.732404 11.197464 23.424999 0.573042 7.221872 2.160867 0.512770 0.314040 0.502210 17.758045 -10.506545 2.500514 -6.695640 -1.503256 6.974874 6.792959 -7.534762 19.538225 -0.837899 -5.103216 2.616060 0.118930 -0.143470 0.178820 -2.181142 -4.215427 -7.594023 2.971391 0.533295 27.084291 0.688659 1.529135 24.902011 2.162435 -3.699091 -12.644485 -11.060810 2.667752 42.943782 -0.782700 0.665590 -21.202590 -12.744490 -20.028919 6.355731 -10.495366 -11.447414 -11.142121 106.306014 -33.150582 -52.237144 -3.564346 2.742362 0.555350 -0.187560 0.259620 0.059960 8.622429 24.896045 12.064033 18.437590 3.473321 -18.173877 -116.220410 32.384570 -67.673019 2.157725 -1.573118 0.000000 0.123930 -0.138000 -0.191920 
0.129370 17.594910 -1.200110 -0.791349 -1.356807 -24.204733 -15.665887 14.610701 3.099684 8.035573 1.146018 7.696961 -10.322639 11.278393 25.067761 0.609840 7.261883 2.149866 0.484350 0.281560 0.491520 17.697801 -10.475424 2.400016 -6.191907 -0.893012 4.209872 6.411260 -7.601844 22.683353 -0.782279 -5.039268 2.639173 0.082250 -0.137970 0.192430 -2.049966 -4.635439 -7.589955 1.681270 0.713343 31.484340 1.276912 1.835312 23.007156 2.250505 -3.616674 -12.180207 -10.273414 1.844853 40.271367 -1.634900 0.778620 -21.435440 -10.003284 -16.068526 5.483637 -11.258822 -9.644063 -10.324656 103.662474 -39.603311 -56.743722 -3.525452 2.662388 0.529950 -0.174820 0.251810 0.054820 5.439670 21.406846 11.125880 19.087108 2.335795 -17.289684 -113.314892 38.542499 -71.590231 2.149965 -1.441901 0.016950 0.099310 -0.137530 -0.182870 
